# xmcd CD database file
#
# Track frame offsets:
#	150
#	17022
#	35690
#	57905
#	74827
#	87420
#	101760
#	115620
#	127030
#	145945
#
# Disc length: 2183 seconds
#
# Revision: 9
# Processed by: cddbd v1.5.2PL0 Copyright (c) Steve Scherf et al.
# Submitted via: CDex 1.73
#
DISCID=9208850a,9a08860a,9d08870a
DTITLE=Vince Gill - 1992 - I Still Believe In You
DYEAR=1992
DGENRE=Country
TTITLE0=Don't Let Our Love Start Slippin' Away
TTITLE1=No Future In The Past
TTITLE2=Nothing Like A Woman
TTITLE3=Tryin' To Get Over You
TTITLE4=Say Hello
TTITLE5=One More Last Chance
TTITLE6=Under These Conditions
TTITLE7=Pretty Words
TTITLE8=Love Never Broke Anyone's Heart
TTITLE9=I Still Believe In You
EXTD=YEAR: 1992
EXTT0=
EXTT1=
EXTT2=
EXTT3=
EXTT4=
EXTT5=
EXTT6=
EXTT7=
EXTT8=
EXTT9=
PLAYORDER=
